<svg viewBox="0 0 800 800" xmlns="http://www.w3.org/2000/svg"><path d="M441.25104690126545,346.8482764134444 L249.03945135384572,400.8402976346298 M441.25104690126545,346.8482764134444 L441.25104690126545,320.38445828855885 M246.8797705049983,369.9877140796667 L441.25104690126545,320.38445828855885 M249.03945135384572,400.8402976346298 L246.8797705049983,369.9877140796667 M441.25104690126545,479.61554171144115 L249.03945135384572,400.8402976346298 M441.25104690126545,479.61554171144115 L551.7559711706879,434.3266383223336 M551.7559711706879,434.3266383223336 L450.4039800225711,400.8402976346298 M450.4039800225711,400.8402976346298 L533.7143508818026,372.8211146102245 M533.7143508818026,372.8211146102245 L441.25104690126545,346.8482764134444 M441.25104690126545,442.6750335076337 L553.1202294950017,400.8402976346298 M553.1202294950017,400.8402976346298 L450.5068219677543,369.9877140796667 M450.5068219677543,369.9877140796667 L534.6675808197463,344.22421647191413 M534.6675808197463,344.22421647191413 L441.25104690126545,320.38445828855885 M246.8797705049983,369.9877140796667 L441.25104690126545,442.6750335076337 M441.25104690126545,479.61554171144115 L441.25104690126545,442.6750335076337 M533.7143508818026,372.8211146102245 L534.6675808197463,344.22421647191413 M450.4039800225711,400.8402976346298 L450.5068219677543,369.9877140796667 M551.7559711706879,434.3266383223336 L553.1202294950017,400.8402976346298" stroke="black"  stroke-width="4"  fill="red"/></svg>